<svg height="488pt" viewBox="8 -4 488 488" width="488pt" xmlns="http://www.w3.org/2000/svg"><path d="m104 95.863281h-40l-40 104h432l-40-104zm0 0" fill="#0378a3"/><path d="m95.699219 199.863281c-26.398438-79.699219 16.699219-165.699219 96.402343-192.101562 79.699219-26.398438 165.699219 16.703125 192.097657 96.402343 10.300781 31.097657 10.300781 64.699219 0 95.699219" fill="#f6967d"/><path d="m248 103.261719-79.398438 14.300781c-14.703124 3.199219-25 16.402344-24.601562 31.300781v51h192v-74.898437c.800781-16.703125-12.101562-30.800782-28.699219-31.601563-1.800781-.101562-3.699219 0-5.5.199219l-2 .402344zm0 0" fill="#f4eca2"/><path d="m48 199.863281h384v232h-384zm0 0" fill="#f7f2da"/><path d="m144.398438 143.863281h191.601562v-16h-184.5c-3.800781 4.601563-6.199219 10.101563-7.101562 16zm0 0" fill="#f2f2f2"/><path d="m160 207.999997h192" fill="none" stroke="#f2f2f2" stroke-miterlimit="10" stroke-width="2" transform="translate(-16 -40.136716)"/><path d="m304 79.863281c0 17.671875-14.328125 32-32 32s-32-14.328125-32-32 14.328125-32 32-32 32 14.328125 32 32zm0 0" fill="#ed1c24"/><path d="m184 431.863281v-80c0-30.898437 25.101562-56 56-56s56 25.101563 56 56v80zm0 0" fill="#5bc9e1"/><path d="m279.5 71.863281h-15v-4.199219c0-24.902343 13.898438-47.300781 36.101562-58.5l6.699219 13.398438c-17.199219 8.601562-27.902343 25.902344-27.902343 45.101562v4.199219zm0 0"/><path d="m240 431.863281v-136c30.898438 0 56 25.101563 56 56v80z" fill="#00bbd6"/><path d="m240 359.863281h16v16h-16zm0 0" fill="#0378a3"/><path d="m224 359.863281h16v16h-16zm0 0" fill="#0378a3"/><path d="m24 199.863281h48v24c0 13.300781-10.699219 24-24 24s-24-10.699219-24-24zm0 0" fill="#fbb03b"/><path d="m72 199.863281h48v24c0 13.300781-10.699219 24-24 24s-24-10.699219-24-24zm0 0" fill="#00bbd6"/><path d="m120 199.863281h48v24c0 13.300781-10.699219 24-24 24s-24-10.699219-24-24zm0 0" fill="#fbb03b"/><path d="m168 199.863281h48v24c0 13.300781-10.699219 24-24 24s-24-10.699219-24-24zm0 0" fill="#00bbd6"/><path d="m216 199.863281h48v24c0 13.300781-10.699219 24-24 24s-24-10.699219-24-24zm0 0" fill="#fbb03b"/><path d="m264 199.863281h48v24c0 13.300781-10.699219 24-24 24s-24-10.699219-24-24zm0 0" fill="#00bbd6"/><path d="m312 199.863281h48v24c0 13.300781-10.699219 24-24 24s-24-10.699219-24-24zm0 0" fill="#fbb03b"/><path d="m360 199.863281h48v24c0 13.300781-10.699219 24-24 24s-24-10.699219-24-24zm0 0" fill="#00bbd6"/><path d="m408 199.863281h48v24c0 13.300781-10.699219 24-24 24s-24-10.699219-24-24zm0 0" fill="#fbb03b"/><path d="m0 423.863281h488v16h-488zm0 0" fill="#29485a"/><path d="m136 319.863281c0 13.253907-10.746094 24-24 24s-24-10.746093-24-24c0-13.253906 10.746094-24 24-24s24 10.746094 24 24zm0 0" fill="#c0e5e7"/><path d="m392 319.863281c0 13.253907-10.746094 24-24 24s-24-10.746093-24-24c0-13.253906 10.746094-24 24-24s24 10.746094 24 24zm0 0" fill="#c0e5e7"/><g fill="#06aae9"><path d="m112 359.863281c-22.101562 0-40-17.898437-40-40 0-22.101562 17.898438-40 40-40s40 17.898438 40 40c0 22.101563-17.898438 40-40 40zm0-64c-13.300781 0-24 10.699219-24 24s10.699219 24 24 24 24-10.699219 24-24-10.699219-24-24-24zm0 0"/><path d="m368 359.863281c-22.101562 0-40-17.898437-40-40 0-22.101562 17.898438-40 40-40s40 17.898438 40 40c0 22.101563-17.898438 40-40 40zm0-64c-13.300781 0-24 10.699219-24 24s10.699219 24 24 24 24-10.699219 24-24-10.699219-24-24-24zm0 0"/></g></svg>