<?xml version="1.0" encoding="iso-8859-1"?>
<!-- Generator: Adobe Illustrator 19.0.0, SVG Export Plug-In . SVG Version: 6.00 Build 0)  -->
<svg version="1.1" id="Capa_1" xmlns="http://www.w3.org/2000/svg" xmlns:xlink="http://www.w3.org/1999/xlink" x="0px" y="0px"
	 viewBox="0 0 512 512" style="enable-background:new 0 0 512 512;" xml:space="preserve">
<circle style="fill:#B6EFAB;" cx="256" cy="256" r="256"/>
<path style="fill:#79D26B;" d="M512,256c0-25.205-3.66-49.552-10.448-72.558l-91.391-91.391H306.995
	C293.698,79.33,275.684,71.5,255.829,71.5s-37.869,7.829-51.166,20.55H101.834v106.993l19.176,19.458v172.206h-19.174v22.506
	l90.901,90.902C212.972,509.259,234.165,512,256,512C397.385,512,512,397.385,512,256z"/>
<rect x="121.01" y="132.08" style="fill:#FFFFFF;" width="269.98" height="264.37"/>
<rect x="255.99" y="132.08" style="fill:#FFF5CB;" width="134.99" height="264.38"/>
<rect x="101.83" y="92.05" style="fill:#FF127F;" width="308.33" height="106.99"/>
<rect x="255.99" y="92.05" style="fill:#B10853;" width="154.17" height="106.99"/>
<g>
	<rect x="135.86" y="92.05" style="fill:#B6E1F7;" width="36.881" height="106.99"/>
	<rect x="237.56" y="92.05" style="fill:#B6E1F7;" width="36.881" height="106.99"/>
</g>
<g>
	<rect x="256" y="92.05" style="fill:#7FC8F1;" width="18.44" height="106.99"/>
	<rect x="339.26" y="92.05" style="fill:#7FC8F1;" width="36.881" height="106.99"/>
</g>
<circle style="fill:#802897;" cx="255.83" cy="145.55" r="74.05"/>
<path style="fill:#451152;" d="M329.875,145.546c0,21.035-8.768,40.026-22.852,53.501c-13.266,12.695-31.23,20.512-51.029,20.55
	V71.503c19.799,0.038,37.763,7.845,51.029,20.55c11.003,10.527,18.762,24.421,21.625,40.026
	C329.456,136.445,329.875,140.943,329.875,145.546z"/>
<circle style="fill:#FFF5CB;" cx="255.83" cy="145.55" r="58.11"/>
<path style="fill:#FFEC97;" d="M313.946,145.546c0,24.031-14.588,44.657-35.386,53.501c-6.932,2.948-14.559,4.593-22.566,4.612
	V87.432c8.017,0.019,15.653,1.664,22.595,4.622c16.775,7.151,29.499,21.948,33.788,40.026
	C313.404,136.407,313.946,140.914,313.946,145.546z"/>
<ellipse transform="matrix(0.7071 -0.7071 0.7071 0.7071 -23.8223 212.0267)" style="fill:#FF9A00;" cx="244.028" cy="134.769" rx="42.19" ry="18.731"/>
<g>
	<path style="fill:#E67500;" d="M257.279,148.015c-16.477,16.477-35.766,23.904-43.08,16.59l59.67-59.67
		C281.183,112.249,273.756,131.538,257.279,148.015z"/>
	
		<ellipse transform="matrix(0.7071 0.7071 -0.7071 0.7071 160.1882 -148.9814)" style="fill:#E67500;" cx="259.931" cy="118.874" rx="10.468" ry="3.922"/>
</g>
<path style="fill:#C06200;" d="M267.333,126.274c-1.532,1.532-6.088-0.539-10.176-4.628l5.547-5.547
	C266.792,120.188,268.864,124.743,267.333,126.274z"/>
<ellipse transform="matrix(0.7071 0.7071 -0.7071 0.7071 173.3578 -117.1848)" style="fill:#E67500;" cx="228.133" cy="150.669" rx="10.468" ry="3.922"/>
<path style="fill:#C06200;" d="M235.538,158.07c-1.531,1.531-6.086-0.541-10.175-4.63l5.547-5.547
	C234.998,151.982,237.07,156.537,235.538,158.07z"/>
<ellipse transform="matrix(0.7071 0.7071 -0.7071 0.7071 166.773 -133.0902)" style="fill:#E67500;" cx="244.041" cy="134.768" rx="13.491" ry="4.721"/>
<path style="fill:#C06200;" d="M253.574,144.31c-1.844,1.843-7.61-0.932-12.879-6.202l6.677-6.677
	C252.642,136.701,255.417,142.467,253.574,144.31z"/>
<path style="fill:#FFAA20;" d="M255.987,183.771c-21.403,0-38.753-6.663-38.753-13.619c0-10.13,17.35-21.737,38.753-21.737
	c21.403,0,38.753,11.607,38.753,21.737C294.74,177.359,277.39,183.771,255.987,183.771z"/>
<g>
	<path style="fill:#FF8900;" d="M294.74,170.152c0,7.207-17.35,13.618-38.752,13.618v-35.355
		C277.39,148.415,294.74,160.022,294.74,170.152z"/>
	<path style="fill:#FF8900;" d="M239.033,155.135c0,7.317-2.45,13.248-5.47,13.248c-2.932,0-5.326-5.587-5.462-12.605
		c3.065-1.881,6.669-3.519,10.662-4.77C238.938,152.307,239.033,153.694,239.033,155.135z"/>
</g>
<path style="fill:#E67500;" d="M283.874,155.78c-0.138,7.016-2.53,12.603-5.462,12.603c-3.021,0-5.47-5.931-5.47-13.248
	c0-1.441,0.095-2.828,0.27-4.125C277.208,152.259,280.81,153.897,283.874,155.78z"/>
<path style="fill:#FF8900;" d="M261.457,152.844c0,7.317-2.449,13.25-5.47,13.25c-3.019,0-5.47-5.933-5.47-13.25
	c0-1.467,0.098-2.88,0.282-4.199c1.696-0.151,3.428-0.229,5.188-0.229s3.492,0.077,5.188,0.229
	C261.358,149.964,261.457,151.376,261.457,152.844z"/>
<path style="fill:#E67500;" d="M261.456,152.844c0,7.314-2.446,13.247-5.468,13.249v-17.677c1.76,0,3.492,0.078,5.187,0.229
	C261.358,149.964,261.456,151.377,261.456,152.844z"/>
<rect x="188.64" y="264.27" style="fill:#B6E1F7;" width="133.77" height="132.19"/>
<rect x="255.99" y="264.26" style="fill:#7FC8F1;" width="66.42" height="132.19"/>
<rect x="176.87" y="245.05" style="fill:#FF127F;" width="157.31" height="25.613"/>
<rect x="255.99" y="245.05" style="fill:#B10853;" width="78.18" height="25.61"/>
<rect x="101.84" y="390.71" style="fill:#802897;" width="308.33" height="22.506"/>
<rect x="256" y="390.7" style="fill:#451152;" width="154.17" height="22.509"/>
<g>
</g>
<g>
</g>
<g>
</g>
<g>
</g>
<g>
</g>
<g>
</g>
<g>
</g>
<g>
</g>
<g>
</g>
<g>
</g>
<g>
</g>
<g>
</g>
<g>
</g>
<g>
</g>
<g>
</g>
</svg>
