<svg id="Capa_1" enable-background="new 0 0 512 512" height="512" viewBox="0 0 512 512" width="512" xmlns="http://www.w3.org/2000/svg"><g><g><g><path d="m323.555 73.68c.388-.982.819-1.957 1.293-2.924 8.65-17.643 29.708-26.207 48.227-19.64 21.228 7.528 31.653 31.143 23.248 51.766-.015.037-.031.075-.046.112-2.789 6.784-2.907 14.298-.103 21.076 7.03 16.989 7.029 36.894-2.01 54.987-14.581 29.188-49.127 43.436-80.058 33.05-36.556-12.274-54.652-52.579-40.323-87.732 6.835-16.767 19.765-29.208 35.189-35.82 6.665-2.856 11.917-8.13 14.583-14.875z" fill="#78c2a4"/><path d="m396.173 124.07c-2.804-6.777-2.686-14.292.103-21.075.015-.037.031-.075.046-.112 7.209-17.687.558-37.565-14.871-47.618.003.331.022.657.022.989 0 48.31-34.104 87.473-76.173 87.473-12.481 0-24.249-3.469-34.645-9.579-7.722 32.535 10.246 66.812 43.451 77.96 30.931 10.385 65.476-3.862 80.058-33.05 9.038-18.094 9.039-37.999 2.009-54.988z" fill="#66b394"/></g><g><g><path d="m173.789 0c-34.484 0-62.439 27.955-62.439 62.439v105.106h124.878v-105.106c0-34.484-27.955-62.439-62.439-62.439z" fill="#f1d59d"/><path d="m173.789 0c-3.548 0-7.021.311-10.407.88 29.528 4.957 52.033 30.623 52.033 61.559v29.213c0 32.719-26.524 59.243-59.243 59.243h-44.822v16.65h124.878v-105.106c0-34.484-27.955-62.439-62.439-62.439z" fill="#ecc373"/><ellipse cx="173.789" cy="81.171" fill="#c38959" rx="29.138" ry="16.65"/><ellipse cx="173.789" cy="150.894" fill="#c38959" rx="29.138" ry="16.65"/><path d="m202.927 150.894c0-5.061-3.957-9.592-10.194-12.646-10.071 7.913-22.759 12.646-36.561 12.646h-11.522c0 9.196 13.046 16.65 29.138 16.65 16.093.001 29.139-7.454 29.139-16.65z" fill="#b17a4a"/></g><g><path d="m291.535 6.731c10.945 3.354 12.843 22.025 7.052 40.924s-19.18 34.179-19.18 34.179l-9.95-3.049-9.95-3.049s-2.531-20.157 3.26-39.057c5.791-18.899 17.823-33.302 28.768-29.948z" fill="#95d6a4"/><path d="m212.14 6.731c-10.945 3.354-12.843 22.025-7.052 40.924s19.18 34.179 19.18 34.179l9.95-3.049 9.95-3.049s2.531-20.157-3.26-39.057c-5.791-18.899-17.823-33.302-28.768-29.948z" fill="#95d6a4"/><path d="m234.146 167.545-22.941-74.807c-.659-2.149-.994-4.385-.994-6.633 0-12.495 10.13-22.625 22.625-22.625h19.001 19.001c12.495 0 22.625 10.13 22.625 22.625 0 2.248-.335 4.484-.994 6.633l-22.941 74.807z" fill="#e7a52e"/><path d="m270.838 63.48h-2.977c.405 4.065.626 8.232.626 12.488 0 38.335-17.118 70.021-39.362 75.207l5.02 16.37h35.382l22.941-74.807c.659-2.149.994-4.385.994-6.633.001-12.496-10.128-22.625-22.624-22.625z" fill="#e49824"/><path d="m251.837 0c11.447 0 18.732 14.569 18.732 31.22s-8.325 32.26-8.325 32.26h-10.406-10.407s-8.325-15.61-8.325-32.26 7.284-31.22 18.731-31.22z" fill="#b3e59f"/></g></g><path d="m427.017 512c15.881 0 31.169-6.052 42.75-16.919 42.233-39.634 42.233-93.01 42.233-111.081 0-108.178-51.942-331.37-62.617-376.096-1.106-4.638-5.251-7.904-10.018-7.904h-33.158c-5.865 0-10.547 4.89-10.292 10.749l4.929 113.361c1.029 23.677-17.888 43.434-41.587 43.434h-206.514c-23.699 0-42.616-19.758-41.587-43.434l4.929-113.361c.255-5.859-4.426-10.749-10.292-10.749h-33.158c-4.768 0-8.912 3.266-10.019 7.904-10.674 44.726-62.616 267.918-62.616 376.096 0 18.071 0 71.447 42.234 111.081 11.58 10.867 26.868 16.919 42.749 16.919z" fill="#e4f6ff"/><path d="m474.268 119.873c.372 6.81.566 13.668.566 20.571 0 205.204-166.352 371.556-371.556 371.556h323.739c15.881 0 31.169-6.052 42.75-16.919 42.233-39.634 42.233-93.01 42.233-111.081 0-67.13-20.002-178.548-37.732-264.127z" fill="#d3effb"/></g><path d="m440 10h-.101c.087.214.171.429.258.643-.102-.42-.157-.643-.157-.643z" fill="#e4f6ff"/></g></svg>