<?xml version="1.0" encoding="iso-8859-1"?>
<!-- Generator: Adobe Illustrator 19.0.0, SVG Export Plug-In . SVG Version: 6.00 Build 0)  -->
<svg version="1.1" id="Layer_1" xmlns="http://www.w3.org/2000/svg" xmlns:xlink="http://www.w3.org/1999/xlink" x="0px" y="0px"
	 viewBox="0 0 512.001 512.001" style="enable-background:new 0 0 512.001 512.001;" xml:space="preserve">
<path style="fill:#38C7C2;" d="M241.227,178.594c-6.78-5.457-29.312-18.782-29.312-18.782V55.609h-64.125v104.204l-29.312,18.782
	c-12.025,12.025-18.782,28.336-18.782,45.344v248.485c0,17.708,14.355,32.063,32.063,32.063h96.188
	c17.708,0,32.063-14.355,32.063-32.063V223.937C260.008,206.93,254.477,189.257,241.227,178.594z"/>
<path style="fill:#00B5B8;" d="M123.742,480.438V231.953c0-17.007,5.532-34.681,18.782-45.344
	c6.78-5.457,29.312-18.782,29.312-18.782V55.609h-24.047v104.204c0,0-22.532,13.325-29.312,18.782
	c-13.25,10.663-18.782,28.336-18.782,45.344v248.485c0,17.708,14.355,32.063,32.063,32.063h2.851
	C127.948,498.61,123.742,490.018,123.742,480.438z"/>
<rect x="99.695" y="280.047" style="fill:#FDFAB6;" width="160.313" height="160.313"/>
<rect x="99.695" y="280.047" style="fill:#FCDE76;" width="24.047" height="160.313"/>
<path style="fill:#F59F3F;" d="M260.008,344.172h-28.729c-8.66-14.153-28.422-24.047-51.427-24.047s-42.768,9.894-51.427,24.047
	H99.695v32.063h28.729c8.66,14.153,28.422,24.047,51.427,24.047s42.768-9.894,51.427-24.047h28.729V344.172z"/>
<rect x="99.695" y="344.172" style="fill:#F2821C;" width="24.047" height="32.063"/>
<polygon style="fill:#F59F3F;" points="131.758,7.515 131.758,55.609 147.789,63.624 147.789,135.765 211.914,135.765 
	211.914,63.624 227.946,55.609 227.946,7.515 "/>
<polygon style="fill:#F2821C;" points="155.805,47.593 155.805,7.515 131.758,7.515 131.758,55.609 147.789,63.624 147.789,135.765 
	171.836,135.765 171.836,55.609 "/>
<rect x="147.789" y="55.609" style="fill:#E57712;" width="64.125" height="8.016"/>
<path style="fill:#F0F0F1;" d="M239.282,256c-2.162,7.644-3.32,15.711-3.32,24.047c0,48.696,39.476,88.172,88.172,88.172
	s88.172-39.476,88.172-88.172c0-8.336-1.158-16.403-3.32-24.047H239.282z"/>
<path style="fill:#E6608D;" d="M324.134,344.172c-35.359,0-64.125-28.766-64.125-64.125h128.25
	C388.259,315.406,359.493,344.172,324.134,344.172z"/>
<path style="fill:#D4506F;" d="M284.055,280.047h-24.047c0,35.359,28.766,64.125,64.125,64.125c4.11,0,8.126-0.404,12.023-1.147
	C306.527,337.38,284.055,311.295,284.055,280.047z"/>
<g>
	<polygon style="fill:#F0F0F1;" points="364.212,504.485 284.055,504.485 324.134,480.438 	"/>
</g>
<circle style="fill:#FFD9E4;" cx="348.181" cy="312.11" r="8.016"/>
<path d="M419.82,280.047c0-8.856-1.212-17.635-3.604-26.092c-0.915-3.235-3.868-5.47-7.231-5.47H380.91
	c-4.151,0-7.515,3.365-7.515,7.515c0,4.15,3.364,7.515,7.515,7.515h22.184c1.126,5.414,1.695,10.953,1.695,16.532
	c0,44.475-36.183,80.658-80.658,80.658s-80.657-36.183-80.657-80.658c0-5.581,0.569-11.12,1.695-16.532h103.677
	c4.151,0,7.515-3.365,7.515-7.515c0-4.15-3.364-7.515-7.515-7.515H239.282c-3.363,0-6.315,2.233-7.231,5.469
	c-2.392,8.454-3.604,17.234-3.604,26.093c0,50.247,38.931,91.572,88.214,95.396c-0.027,0.261-0.042,0.524-0.042,0.792v99.949
	l-36.429,21.858c-2.951,1.77-4.336,5.439-3.295,8.719c0.979,3.085,3.926,5.24,7.162,5.24h80.157c3.236,0,6.183-2.155,7.162-5.24
	c1.04-3.279-0.345-6.948-3.295-8.719l-36.431-21.858v-99.949c0-0.268-0.015-0.531-0.042-0.792
	C380.889,371.619,419.82,330.294,419.82,280.047z M311.185,496.971l12.948-7.768l12.948,7.768H311.185z"/>
<path d="M252.494,280.047c0,39.502,32.138,71.64,71.64,71.64s71.64-32.138,71.64-71.64c0-4.15-3.364-7.515-7.515-7.515h-128.25
	C255.857,272.532,252.494,275.897,252.494,280.047z M380.247,287.562c-3.686,27.676-27.446,49.096-56.114,49.096
	s-52.427-21.42-56.114-49.096H380.247z"/>
<path d="M260.008,357.699c-4.151,0-7.515,3.365-7.515,7.515v3.507h-21.214c-2.616,0-5.045,1.361-6.41,3.592
	c-7.604,12.426-25.273,20.455-45.018,20.455s-37.414-8.029-45.017-20.455c-1.366-2.231-3.793-3.592-6.41-3.592H107.21v-17.033
	h21.214c2.616,0,5.045-1.361,6.41-3.592c7.604-12.426,25.273-20.455,45.018-20.455s37.414,8.029,45.018,20.455
	c1.366,2.232,3.793,3.592,6.41,3.592h8.69c4.15,0,7.515-3.365,7.515-7.515s-3.365-7.515-7.515-7.515h-4.734
	c-11.158-14.73-32.343-24.047-55.383-24.047s-44.226,9.317-55.383,24.047H107.21v-49.096h109.046c4.15,0,7.515-3.365,7.515-7.515
	s-3.365-7.515-7.515-7.515H107.21v-48.595c0-16.924,5.824-31.317,15.978-39.489c5.214-4.196,22.288-14.537,28.427-18.167
	c2.286-1.353,3.689-3.811,3.689-6.469V143.28H204.4v16.532c0,2.656,1.403,5.116,3.689,6.469c6.138,3.63,23.209,13.969,28.427,18.167
	c10.155,8.172,15.978,22.565,15.978,39.489v10.688c0,4.15,3.364,7.515,7.515,7.515c4.151,0,7.515-3.365,7.515-7.515v-10.688
	c0-21.498-7.868-40.158-21.585-51.198c-5.513-4.437-19.618-13.056-26.509-17.195V68.268l11.877-5.939
	c2.546-1.272,4.154-3.875,4.154-6.721V7.515c0-4.15-3.365-7.515-7.515-7.515h-96.188c-4.15,0-7.515,3.365-7.515,7.515v48.094
	c0,2.847,1.608,5.449,4.154,6.721l11.877,5.939v87.276c-6.89,4.139-20.995,12.758-26.509,17.195
	c-13.718,11.04-21.585,29.7-21.585,51.198v248.485c0,21.823,17.755,39.577,39.577,39.577h96.188
	c21.823,0,39.577-17.755,39.577-39.577V365.213C267.523,361.062,264.159,357.699,260.008,357.699z M139.273,50.965V15.029h81.159
	v35.935l-11.877,5.939c-2.546,1.272-4.154,3.875-4.154,6.721v64.626h-49.096V63.624c0-2.847-1.608-5.449-4.154-6.721L139.273,50.965
	z M124.469,383.75c11.157,14.73,32.343,24.047,55.383,24.047s44.226-9.317,55.383-24.047h17.259v49.096H107.21V383.75H124.469z
	 M227.946,496.971h-96.188c-13.535,0-24.548-11.013-24.548-24.548v-24.548h145.284v24.548
	C252.494,485.958,241.481,496.971,227.946,496.971z"/>
<g>
</g>
<g>
</g>
<g>
</g>
<g>
</g>
<g>
</g>
<g>
</g>
<g>
</g>
<g>
</g>
<g>
</g>
<g>
</g>
<g>
</g>
<g>
</g>
<g>
</g>
<g>
</g>
<g>
</g>
</svg>
