<svg id="Layer_1" enable-background="new 0 0 512.002 512.002" height="512" viewBox="0 0 512.002 512.002" width="512" xmlns="http://www.w3.org/2000/svg"><g><g><path d="m221.424 179.165-3.964-119.328v-39.837c0-11.028-8.972-20-20-20h-22.784c-11.028 0-20 8.972-20 20v39.837l-3.964 119.328c-34.01 14.293-56.186 47.604-54.635 83.272l10 230c.477 10.972 9.258 19.566 19.991 19.566h120c10.732 0 19.513-8.594 19.991-19.565l10-230c1.551-35.67-20.625-68.98-54.635-83.273zm-23.964-159.165v30.002h-22.783v-30.002zm-74.349 403.742h125.916l-.87 20.001h-124.177zm131.155-120.497h-23.2c-5.523 0-10 4.477-10 10s4.477 10 10 10h22.331l-3.5 80.497h-127.656l-3.5-80.497h22.325c5.523 0 10-4.477 10-10s-4.477-10-10-10h-23.194l-.87-20.001h28.101c4.06 0 7.717-2.455 9.255-6.212 5.293-12.932 17.741-21.288 31.711-21.288s26.418 8.356 31.711 21.288c1.538 3.757 5.195 6.212 9.255 6.212h28.101zm-8.316 188.757h-119.762c-.048-.071-.118-.21-.128-.435l-1.21-27.824h122.438l-1.21 27.824c-.01.225-.08.364-.128.435zm10.128-230.435-.073 1.676h-22.725c-9.545-16.902-27.413-27.5-47.212-27.5s-37.667 10.598-47.212 27.5h-22.724l-.073-1.676c-1.264-29.054 18.305-56.16 47.587-65.915 3.969-1.322 6.695-4.975 6.834-9.155l3.87-116.495h23.436l3.87 116.495c.139 4.181 2.865 7.833 6.834 9.155 29.283 9.756 48.852 36.861 47.588 65.915z"/><path d="m411.108 378.722c-3.865-4.271-9.387-6.72-15.149-6.72h-80c-5.762 0-11.284 2.449-15.149 6.72-3.617 3.997-5.322 9.066-4.801 14.274l10 100c1.083 10.835 9.66 19.005 19.95 19.005h60c10.29 0 18.866-8.17 19.95-19.005l10-100c.521-5.207-1.185-10.277-4.801-14.274zm-15.199 13.28-2 20.001h-75.9l-2-20.001zm-10.212 100h-59.477c-.109-.173-.261-.503-.311-.995l-5.901-59.003h71.9l-5.901 59.003c-.049.491-.201.822-.31.995z"/><path d="m186.069 303.245h-.008c-5.523 0-9.996 4.477-9.996 10s4.481 10 10.004 10 10-4.477 10-10-4.477-10-10-10z"/></g></g></svg>