<svg height="512" viewBox="0 0 128 128" width="512" xmlns="http://www.w3.org/2000/svg"><g><path d="m48.311 66.087a9.148 9.148 0 0 1 -3.825 12.635c.747 5.667-1.867 7.927-5.633 8.144-6.069 8.34-12.5 5.582-12.5 5.582s-6.94.907-10.508-8.766c-3.574-1.233-5.468-4.116-3.218-9.369a9.141 9.141 0 0 1 -.242-13.2c-3.265-1.853-4.822-9.084 1.255-11.979-.321-4.454 1.185-10.7 8.265-9.72-.431-4.765 3.987-13.174 13.428-11.867s11.409 10.6 9.7 15.068c7.08.98 6.833 7.4 5.322 11.6 5.062 4.437 1.6 10.973-2.044 11.872z" fill="#9adb07"/><g fill="#88b708"><path d="m24.123 110.349a1.655 1.655 0 0 1 -.243-.017 1.75 1.75 0 0 1 -1.493-1.974l9.013-65.091a1.75 1.75 0 1 1 3.466.48l-9.007 65.092a1.751 1.751 0 0 1 -1.736 1.51z"/><path d="m31.028 60.432a1.75 1.75 0 0 1 -1.186-3.032 57.5 57.5 0 0 1 10.77-7.419 1.75 1.75 0 1 1 1.661 3.08 54.793 54.793 0 0 0 -10.06 6.913 1.746 1.746 0 0 1 -1.185.458z"/><path d="m29.667 70.27a1.75 1.75 0 0 1 -1.186-3.038 57.5 57.5 0 0 1 10.769-7.418 1.75 1.75 0 1 1 1.662 3.086 54.719 54.719 0 0 0 -10.06 6.912 1.746 1.746 0 0 1 -1.185.458z"/><path d="m28.305 80.108a1.75 1.75 0 0 1 -1.186-3.037 57.564 57.564 0 0 1 10.77-7.419 1.75 1.75 0 1 1 1.661 3.08 54.766 54.766 0 0 0 -10.06 6.914 1.745 1.745 0 0 1 -1.185.462z"/><path d="m31.029 60.432a1.75 1.75 0 0 1 -1.491-.832 55.083 55.083 0 0 0 -7.8-9.387 1.75 1.75 0 0 1 2.43-2.513 57.461 57.461 0 0 1 8.351 10.066 1.75 1.75 0 0 1 -.574 2.406 1.73 1.73 0 0 1 -.916.26z"/><path d="m29.668 70.27a1.749 1.749 0 0 1 -1.491-.832 55.173 55.173 0 0 0 -7.8-9.386 1.75 1.75 0 0 1 2.435-2.514 57.455 57.455 0 0 1 8.345 10.062 1.751 1.751 0 0 1 -1.489 2.667z"/><path d="m28.307 80.108a1.748 1.748 0 0 1 -1.492-.832 55.074 55.074 0 0 0 -7.8-9.385 1.75 1.75 0 0 1 2.435-2.514 57.512 57.512 0 0 1 8.35 10.064 1.75 1.75 0 0 1 -1.488 2.667z"/><path d="m80.4 114.754 2.062-21.743c.6-9.393-1.967-15.855-7.248-21.327l9.425-.407a34 34 0 0 1 5.3 18.6 34 34 0 0 1 7.606-17.777l9.3 1.6c-5.931 4.76-9.292 10.845-9.89 20.238l-.707 21.828z"/></g><path d="m121.478 55.05a10.608 10.608 0 0 0 -6.693-10.538 10.6 10.6 0 0 0 -9.714-9.549 11.617 11.617 0 0 0 -21.493-1.363 10.6 10.6 0 0 0 -10.845 8.242 10.6 10.6 0 0 0 -5.316 17.323 11.61 11.61 0 0 0 17.307 13.925 11.574 11.574 0 0 0 14.208.9 11.611 11.611 0 0 0 18.932-11.625 10.571 10.571 0 0 0 3.614-7.315z" fill="#9adb07"/><path d="m106.63 72.662a1.75 1.75 0 0 1 0-3.5 3.875 3.875 0 0 0 3.854-3.626 1.75 1.75 0 1 1 3.493.223 7.381 7.381 0 0 1 -7.347 6.903z" fill="#88b708"/><g><ellipse cx="64.555" cy="28.198" fill="#88b708" rx="12.53" ry="4.536" transform="matrix(.371 -.929 .929 .371 14.405 77.67)"/><ellipse cx="52.897" cy="28.198" fill="#88b708" rx="4.536" ry="12.53" transform="matrix(.929 -.371 .371 .929 -6.688 21.654)"/><ellipse cx="58.726" cy="23.096" fill="#9adb07" rx="4.536" ry="16.596"/><path d="m76.47 42.64-.03.14-.67 3.46-4.85 25.04-.67 3.43-5.41 27.89a6.242 6.242 0 0 1 -7.07 4.97 6.369 6.369 0 0 1 -5.19-5.16l-6.72-34.6-.66-3.45-2.66-13.66-.67-3.46-.89-4.6a7.7 7.7 0 0 1 5.63-8.92 48.463 48.463 0 0 1 24.24 0 7.706 7.706 0 0 1 5.62 8.92z" fill="#fc6243"/><g fill="#d8442b"><path d="m55.82 66.06a1.746 1.746 0 0 1 -1.75 1.75h-8.21l-.66-3.45a1.2 1.2 0 0 1 .38-.05h8.49a1.746 1.746 0 0 1 1.75 1.75z"/><path d="m66.328 58.937h-8.446a1.75 1.75 0 1 1 0-3.5h8.446a1.75 1.75 0 0 1 0 3.5z"/><path d="m76.44 42.78-.67 3.46h-9.23a1.75 1.75 0 0 1 0-3.5h9.57a1.194 1.194 0 0 1 .33.04z"/><path d="m59.188 79.281h-4.6a1.75 1.75 0 0 1 0-3.5h4.6a1.75 1.75 0 0 1 0 3.5z"/><path d="m51.4 48.95a1.746 1.746 0 0 1 -1.75 1.75h-7.11l-.67-3.46a1.267 1.267 0 0 1 .34-.04h7.44a1.752 1.752 0 0 1 1.75 1.75z"/><path d="m70.92 71.28-.67 3.43h-5.54a1.75 1.75 0 1 1 0-3.5h5.76a1.327 1.327 0 0 1 .45.07z"/></g></g><path d="m6.5 83.67h115v37.83h-115z" fill="#fce277"/><g fill="#e8be56"><path d="m6.5 94.53h115v3.5h-115z"/><path d="m6.5 107.14h115v3.5h-115z"/></g></g></svg>